HIERARCHY
ROOT Hips
{
	OFFSET 0.00000 0.00000 0.00000
	CHANNELS 6 Xposition Yposition Zposition Zrotation Yrotation Xrotation 
	JOINT LHipJoint
	{
		OFFSET 0 0 0
		CHANNELS 3 Zrotation Yrotation Xrotation
		JOINT LeftHip
		{
			OFFSET 1.81638 -1.86202 0.89635
			CHANNELS 3 Zrotation Yrotation Xrotation
			JOINT LeftKnee
			{
				OFFSET 2.63464 -7.23861 0.00000
				CHANNELS 3 Zrotation Yrotation Xrotation
				JOINT LeftAnkle
				{
					OFFSET 2.45871 -6.75336 0.00000
					CHANNELS 3 Zrotation Yrotation Xrotation
					JOINT LeftToe
					{
						OFFSET 0.34235 -0.94059 2.20020
						CHANNELS 3 Zrotation Yrotation Xrotation
						End Site
						{
							OFFSET 0.00000 -0.00000 1.18611
						}
					}
				}
			}
		}
	}
	JOINT RHipJoint
	{
		OFFSET 0 0 0
		CHANNELS 3 Zrotation Yrotation Xrotation
		JOINT RightHip
		{
			OFFSET -1.84405 -1.86203 0.89635
			CHANNELS 3 Zrotation Yrotation Xrotation
			JOINT RightKnee
			{
				OFFSET -2.71067 -7.44751 0.00000
				CHANNELS 3 Zrotation Yrotation Xrotation
				JOINT RightAnkle
				{
					OFFSET -2.47159 -6.79060 0.00000
					CHANNELS 3 Zrotation Yrotation Xrotation
					JOINT RightToe
					{
						OFFSET -0.26223 -0.72048 2.36007
						CHANNELS 3 Zrotation Yrotation Xrotation
						End Site
						{
							OFFSET -0.00000 -0.00000 1.23343
						}
					}
				}
			}
		}
	}
	JOINT lowerback
	{
		OFFSET 0 0 0
		CHANNELS 3 Zrotation Yrotation Xrotation
		JOINT Chest
		{
			OFFSET 0.02089 1.99248 -0.22512
			CHANNELS 3 Zrotation Yrotation Xrotation
			JOINT Chest2
			{
				OFFSET 0.01476 2.01356 -0.03079
				CHANNELS 3 Zrotation Yrotation Xrotation
				JOINT lowerneck
				{
					OFFSET 0 0 0
					CHANNELS 3 Zrotation Yrotation Xrotation
					JOINT Neck
					{
						OFFSET 0.04846 1.65098 0.06663
						CHANNELS 3 Zrotation Yrotation Xrotation
						JOINT Head
						{
							OFFSET -0.06061 1.60634 -0.07565
							CHANNELS 3 Zrotation Yrotation Xrotation
							End Site
							{
								OFFSET -0.02954 1.73562 -0.03642
							}
						}
					}
				}
				JOINT LeftCollar
				{
					OFFSET 0 0 0
					CHANNELS 3 Zrotation Yrotation Xrotation
					JOINT LeftShoulder
					{
						OFFSET 3.45234 1.47051 -0.06993
CHANNELS 3 Zrotation Xrotation Yrotation
						JOINT LeftElbow
						{
OFFSET 0 -5.493130 0.000000
CHANNELS 3 Zrotation Xrotation Yrotation
							JOINT LeftWrist
							{
OFFSET 0 -3.290370 0.000000
CHANNELS 3 Zrotation Xrotation Yrotation
								JOINT lhand
								{
									OFFSET 0 0 0
CHANNELS 3 Zrotation Xrotation Yrotation
									JOINT LFingers
									{
OFFSET 0 -0.729660 0.000000
CHANNELS 3 Zrotation Xrotation Yrotation
										End Site
										{
OFFSET 0 -0.588270 0.000000
										}
									}
								}
								JOINT LThumb
								{
OFFSET 0 0.000000 0.000000
CHANNELS 3 Zrotation Xrotation Yrotation
									End Site
									{
OFFSET 0 -0.597250 0.597250
									}
								}
							}
						}
					}
				}
				JOINT RightCollar
				{
					OFFSET 0 0 0
					CHANNELS 3 Zrotation Yrotation Xrotation
					JOINT RightShoulder
					{
						OFFSET -3.41935 1.44327 0.20453
CHANNELS 3 Zrotation Xrotation Yrotation
						JOINT RightElbow
						{
OFFSET 0 -5.236840 0.000000
CHANNELS 3 Zrotation Xrotation Yrotation
							JOINT RightWrist
							{
OFFSET 0 -3.382510 0.000000
CHANNELS 3 Zrotation Xrotation Yrotation
								JOINT rhand
								{
									OFFSET 0 0 0
CHANNELS 3 Zrotation Xrotation Yrotation
									JOINT RFingers
									{
OFFSET 0 -0.691450 0.000000
CHANNELS 3 Zrotation Xrotation Yrotation
										End Site
										{
OFFSET 0 -0.557470 0.000000
										}
									}
								}
								JOINT RThumb
								{
OFFSET 0 0.000000 0.000000
CHANNELS 3 Zrotation Xrotation Yrotation
									End Site
									{
OFFSET 0 -0.565980 0.565980
									}
								}
							}
						}
					}
				}
			}
		}
	}
}
MOTION
Frames: 7
Frame Time: 0.008333333333333333
-32.080200 17.800300 -22.592600 -13.515300 75.553000 -7.261500 0.000000 0.000000 0.000000 -9.808000 -12.736300 -21.100200 3.434700 11.367500 33.529400 -0.833400 -20.043900 -5.681400 1.950700 8.762500 25.055300 0.000000 0.000000 0.000000 24.711100 12.069800 9.969700 -0.229000 -3.080300 8.502500 -1.329400 2.959500 -21.025400 -0.165900 -2.624300 7.234500 -0.604900 0.033600 13.009100 3.323500 0.460600 10.087200 3.790800 0.295100 3.313200 1.256700 3.474900 -3.156900 -5.809700 4.469300 -7.570400 -2.071200 2.371000 -1.670500 -0.000000 -0.000000 0.000000 6.505600 18.211900 -30.700200 32.394900 -42.859800 13.008700 -3.518700 1.719000 -10.500200 0.000000 0.000000 0.000000 -7.125000 0.000000 0.000000 -26.107800 39.054500 -4.163500 -0.000000 -0.000000 0.000000 -23.334200 15.741800 55.022200 -28.839200 -39.877400 -10.657500 -15.054800 5.727300 14.076700 0.000000 0.000000 0.000000 7.125000 0.000000 -0.000000 11.404000 44.233100 0.218800
-32.077875 17.801134 -22.593930 -13.455638 75.533689 -7.189227 0.000000 0.000000 0.000000 -9.831585 -12.726314 -21.093076 3.429950 11.360564 33.505771 -0.828055 -20.037251 -5.742178 1.935353 8.730115 24.954721 0.000000 0.000000 0.000000 24.687381 12.097707 9.961548 -0.229217 -3.081498 8.505822 -1.322190 2.939115 -20.970340 -0.157400 -2.556364 7.046063 -0.604334 0.042535 13.001856 3.315378 0.471103 10.070351 3.780487 0.300402 3.298176 1.286677 3.472575 -3.123129 -5.837869 4.463916 -7.563167 -2.086397 2.368119 -1.673055 0.000000 0.000000 0.000000 6.629390 18.050311 -30.907860 32.062291 -42.596615 12.783049 -3.339781 1.607928 -10.387527 0.000000 0.000000 0.000000 -7.125000 0.000000 0.000000 -25.925767 38.968279 -4.189579 0.000000 0.000000 0.000000 -23.323814 15.771969 54.998067 -28.860011 -39.896047 -10.670785 -15.084047 5.702784 14.062805 0.000000 0.000000 0.000000 7.125000 0.000000 0.000000 11.374170 44.222303 0.221313
-32.075650 17.802047 -22.595459 -13.390116 75.510874 -7.109869 0.000000 0.000000 0.000000 -9.855217 -12.715953 -21.088512 3.425578 11.354106 33.483555 -0.823378 -20.029290 -5.791711 1.918959 8.695155 24.846364 0.000000 0.000000 0.000000 24.662602 12.130039 9.951943 -0.229634 -3.084463 8.513897 -1.314915 2.912593 -20.915598 -0.148500 -2.483157 6.842867 -0.605403 0.052660 12.992496 3.306131 0.482975 10.053568 3.769850 0.306260 3.284087 1.315682 3.469959 -3.089214 -5.864442 4.458240 -7.560228 -2.100991 2.365181 -1.677122 0.000000 0.000000 0.000000 6.754130 17.888647 -31.114448 31.732278 -42.332531 12.560239 -3.168775 1.492349 -10.260405 0.000000 0.000000 0.000000 -7.125000 0.000000 0.000000 -25.745218 38.868093 -4.224826 0.000000 0.000000 0.000000 -23.313218 15.801511 54.978343 -28.883920 -39.917357 -10.686141 -15.113632 5.670592 14.050553 0.000000 0.000000 0.000000 7.125000 0.000000 0.000000 11.344377 44.213328 0.223206
-32.073290 17.802920 -22.596989 -13.325102 75.488692 -7.030131 0.000000 0.000000 0.000000 -9.878179 -12.707635 -21.085560 3.421553 11.348112 33.462961 -0.819853 -20.026098 -5.833035 1.897328 8.648827 24.702830 0.000000 0.000000 0.000000 24.637464 12.161907 9.942188 -0.230069 -3.087478 8.522349 -1.307403 2.886313 -20.858734 -0.139614 -2.408417 6.635807 -0.606438 0.062779 12.980553 3.296493 0.494720 10.036833 3.758787 0.312043 3.271526 1.343230 3.465815 -3.055748 -5.889486 4.450568 -7.559552 -2.114865 2.361284 -1.682002 0.000000 0.000000 0.000000 6.882622 17.731516 -31.327809 31.410212 -42.071799 12.343877 -2.957292 1.368196 -10.212244 0.000000 0.000000 0.000000 -7.125000 0.000000 0.000000 -25.559595 38.842586 -4.206692 0.000000 0.000000 0.000000 -23.302118 15.831125 54.964093 -28.908875 -39.939631 -10.702209 -15.144924 5.638983 14.036524 0.000000 0.000000 0.000000 7.125000 0.000000 0.000000 11.312653 44.202754 0.225599
-32.070675 17.803838 -22.598463 -13.259395 75.463136 -6.943057 0.000000 0.000000 0.000000 -9.898927 -12.696837 -21.090881 3.418050 11.342887 33.445118 -0.816181 -20.026182 -5.880598 1.872867 8.596033 24.539774 0.000000 0.000000 0.000000 24.611892 12.198934 9.928787 -0.230456 -3.089806 8.528863 -1.299393 2.858748 -20.797714 -0.130187 -2.325763 6.406895 -0.607269 0.074063 12.956230 3.286262 0.507726 10.019930 3.746887 0.318350 3.265381 1.368033 3.460412 -3.025160 -5.911845 4.441380 -7.559687 -2.127351 2.356662 -1.686757 0.000000 0.000000 0.000000 7.015710 17.578439 -31.551223 31.095814 -41.814181 12.133772 -2.706831 1.233221 -10.232646 0.000000 0.000000 0.000000 -7.125000 0.000000 0.000000 -25.365911 38.882116 -4.142357 0.000000 0.000000 0.000000 -23.288649 15.859746 54.954143 -28.932933 -39.960964 -10.717645 -15.178084 5.607829 14.015598 0.000000 0.000000 0.000000 7.125000 0.000000 0.000000 11.277460 44.185474 0.229800
-32.067989 17.804672 -22.599949 -13.199891 75.438669 -6.861200 0.000000 0.000000 0.000000 -9.917888 -12.686388 -21.099331 3.415284 11.338826 33.431135 -0.812522 -20.030407 -5.933227 1.843342 8.531867 24.341602 0.000000 0.000000 0.000000 24.588104 12.233766 9.917702 -0.230500 -3.089914 8.529237 -1.291371 2.832746 -20.736561 -0.121485 -2.247094 6.188989 -0.606923 0.085212 12.928700 3.276146 0.520551 10.003366 3.734530 0.324580 3.261308 1.391138 3.453348 -2.995496 -5.933480 4.430093 -7.559314 -2.139303 2.350996 -1.691441 0.000000 0.000000 0.000000 7.150833 17.426405 -31.781112 30.787812 -41.559159 11.928853 -2.443770 1.091133 -10.265502 0.000000 0.000000 0.000000 -7.125000 0.000000 0.000000 -25.166025 38.934047 -4.069082 0.000000 0.000000 0.000000 -23.272756 15.888342 54.946248 -28.955657 -39.981236 -10.732223 -15.212059 5.580932 13.989440 0.000000 0.000000 0.000000 7.125000 0.000000 0.000000 11.240262 44.162732 0.235394
-32.065450 17.805572 -22.601850 -13.167355 75.412303 -6.806403 0.000000 0.000000 0.000000 -9.930157 -12.676137 -21.111930 3.413794 11.336525 33.423503 -0.809075 -20.034575 -5.983136 1.802901 8.442795 24.067363 0.000000 0.000000 0.000000 24.569220 12.268882 9.909696 -0.229994 -3.086659 8.520086 -1.283505 2.809466 -20.675224 -0.113846 -2.175483 5.990804 -0.595607 0.089756 12.910184 3.267540 0.525822 9.982482 3.718210 0.327634 3.248194 1.395871 3.450981 -2.963909 -5.948332 4.425747 -7.555862 -2.145716 2.349144 -1.695632 0.000000 0.000000 0.000000 7.275894 17.274605 -32.007581 30.471526 -41.293978 11.719601 -2.197694 0.932097 -10.215757 0.000000 0.000000 0.000000 -7.125000 0.000000 0.000000 -24.951550 38.909523 -4.045034 0.000000 0.000000 0.000000 -23.270791 15.916337 54.962854 -28.977665 -40.000846 -10.746339 -15.242369 5.554944 13.959968 0.000000 0.000000 0.000000 7.125000 0.000000 0.000000 11.205493 44.136491 0.241954
